<?xml version="1.0" encoding="utf-8"?>
<!-- Generator: Adobe Illustrator 25.4.1, SVG Export Plug-In . SVG Version: 6.00 Build 0)  -->
<svg version="1.1" id="Layer_1" xmlns="http://www.w3.org/2000/svg" xmlns:xlink="http://www.w3.org/1999/xlink" x="0px" y="0px"
	 width="32.7px" height="37.5px" viewBox="0 0 32.7 37.5" enable-background="new 0 0 32.7 37.5" xml:space="preserve">
<g id="Group_261" transform="translate(0)">
	<g id="Group_258" transform="translate(4.066 0)">
		<path id="Path_293" fill="#0E1326" d="M21,0.2H2.1c-1.1,0-1.9,0.9-1.9,1.9l0,0v33.2c0,1.1,0.9,1.9,1.9,1.9l0,0h24.4
			c1.1,0,1.9-0.9,1.9-1.9l0,0V8.5c0-0.5-0.2-0.9-0.5-1.3l-5.6-6.3C22.1,0.5,21.6,0.2,21,0.2z M26.4,8.3H21V2.2L26.4,8.3z M26.6,35.3
			H2.1V2.2h17v6.2c0,1.1,0.9,1.9,1.9,1.9l0,0h5.5L26.6,35.3z"/>
	</g>
	<path id="Rectangle_134" fill="#0237A4" d="M4.7,7h10.3c2.5,0,4.5,2,4.5,4.5l0,0c0,2.5-2,4.5-4.5,4.5H4.7c-2.5,0-4.5-2-4.5-4.5l0,0
		C0.2,9,2.2,7,4.7,7z"/>
	<g id="Group_259" transform="translate(9.322 19.786)">
		<path id="Rectangle_135" fill="#0E1326" d="M1.2,0.2h15.5c0.5,0,1,0.4,1,1c0,0,0,0,0,0l0,0c0,0.5-0.4,1-1,1l0,0H1.2
			c-0.5,0-1-0.4-1-1l0,0C0.2,0.7,0.6,0.2,1.2,0.2z"/>
		<path id="Rectangle_136" fill="#0E1326" d="M1.2,4.4h15.5c0.5,0,1,0.4,1,1c0,0,0,0,0,0l0,0c0,0.5-0.4,1-1,1l0,0H1.2
			c-0.5,0-1-0.4-1-1l0,0C0.2,4.9,0.6,4.4,1.2,4.4z"/>
		<path id="Rectangle_137" fill="#0E1326" d="M1.2,8.6h15.5c0.5,0,1,0.4,1,1c0,0,0,0,0,0l0,0c0,0.5-0.4,1-1,1l0,0H1.2
			c-0.5,0-1-0.4-1-1l0,0C0.2,9,0.6,8.6,1.2,8.6z"/>
	</g>
	<g id="Group_260" transform="translate(3.044 8.852)">
		<path id="Path_294" fill="#FFFFFF" d="M0.2,0.3H2c1.2,0,2.2,1,2.1,2.3c0,1.2-1,2.1-2.1,2.1H0.2V0.3z M1.9,3.9
			c0.9,0,1.3-0.5,1.3-1.4S2.7,1.1,1.9,1.1H1.2v2.8L1.9,3.9z"/>
		<path id="Path_295" fill="#FFFFFF" d="M8.9,2.5c-0.1,1.2-1.1,2.1-2.3,2c-1.2-0.1-2.1-1.1-2-2.3c0.1-1.1,1-2,2.2-2
			c1.2,0,2.1,0.9,2.2,2.1C8.9,2.4,8.9,2.5,8.9,2.5z M5.5,2.5C5.5,3.5,6,4,6.7,4c0.7,0,1.2-0.6,1.2-1.5S7.5,1,6.7,1S5.5,1.6,5.5,2.5
			L5.5,2.5z"/>
		<path id="Path_296" fill="#FFFFFF" d="M11.5,4.8c-1.2,0-2.1-0.9-2.1-2c0-0.1,0-0.2,0-0.3c-0.1-1.2,0.8-2.2,2-2.3
			c0.1,0,0.1,0,0.2,0c0.9-0.1,1.8,0.6,1.9,1.6h-0.9C12.4,1.3,12,1,11.5,1c-0.8,0-1.2,0.8-1.2,1.5c0,0.9,0.4,1.5,1.2,1.5
			c0.6,0,0.9-0.3,1-1h1c0,1-0.8,1.8-1.8,1.8C11.6,4.8,11.5,4.8,11.5,4.8z"/>
	</g>
</g>
</svg>
