<?xml version="1.0" encoding="utf-8"?>
<!-- Generator: Adobe Illustrator 25.4.1, SVG Export Plug-In . SVG Version: 6.00 Build 0)  -->
<svg version="1.1" id="Layer_1" xmlns="http://www.w3.org/2000/svg" xmlns:xlink="http://www.w3.org/1999/xlink" x="0px" y="0px"
	 width="48.7px" height="48.7px" viewBox="0 0 48.7 48.7" enable-background="new 0 0 48.7 48.7" xml:space="preserve">
<g id="social-fb" transform="translate(-1413.664 -930.336)">
	<path id="Facebook" fill="#FFFFFF" d="M1435.5,948.8v2.6h-1.9v3.2h1.9v9.6h4v-9.6h2.7c0,0,0.2-1.5,0.4-3.2h-3v-2.2
		c0.1-0.4,0.4-0.7,0.9-0.8h2.2v-3.3h-2.9C1435.4,945.1,1435.5,948.4,1435.5,948.8z"/>
	<path id="Path_201" fill="#BF7B30" d="M1438,979.1c-13.5,0-24.4-10.9-24.4-24.4c0-13.5,10.9-24.4,24.4-24.4
		c13.5,0,24.4,10.9,24.4,24.4C1462.4,968.1,1451.5,979,1438,979.1z M1438,932.3c-12.3,0-22.4,10-22.4,22.4c0,12.3,10,22.4,22.4,22.4
		c12.3,0,22.4-10,22.4-22.4C1460.4,942.4,1450.4,932.4,1438,932.3z"/>
</g>
</svg>
