<?xml version="1.0" encoding="utf-8"?>
<!-- Generator: Adobe Illustrator 25.4.1, SVG Export Plug-In . SVG Version: 6.00 Build 0)  -->
<svg version="1.1" id="Layer_1" xmlns="http://www.w3.org/2000/svg" xmlns:xlink="http://www.w3.org/1999/xlink" x="0px" y="0px"
	 width="512px" height="512px" viewBox="0 0 512 512" enable-background="new 0 0 512 512" xml:space="preserve">
<path fill="#FFFFFF" d="M493.8,513.4H19.2c-10.9,0-19.7-8.8-19.7-19.7V21.1c0-10.9,8.8-19.7,19.7-19.7h474.7
	c10.9,0,19.7,8.8,19.7,19.7v472.7C513.5,504.6,504.7,513.4,493.8,513.4z"/>
<path id="Path_280" fill="#0237A4" d="M213.2,267.1c6.5-24,11.5-43.6,15-58.7c3.5-15.1,6.9-28.4,10-39.8c3-11.1,6.6-22,10.8-32.8
	c4.1-10.4,9.7-22.9,17-37.5c2.7-5.5,5.6-10.9,8.7-16.2c3-5.2,6.6-10.1,10.6-14.5c3.9-4.3,8.6-8,13.7-10.9c5.4-3,11.4-4.7,17.5-4.9
	c9.2,0.1,17.8,4.7,23.1,12.2c6.6,8.8,11.6,18.7,14.8,29.2c3.7,11.8,6.2,24,7.4,36.3c1.2,10.9,1.6,21.9,1.2,32.8
	c-0.8,15.2-2.6,30.2-5.5,45.2c-2.8,14.9-8.7,29.2-17.2,41.7c-9.8,15-22.4,27.8-37.2,37.9c-12,8.4-26,13.4-40.6,14.5
	c-6.8,0.4-13.7-0.6-20.1-3c-2.1,5.7-3.4,11.5-4,17.5c-1.3,9-3,19.8-5,32.5c-2,12.7-4.4,26.8-7.2,42.4c-2.8,15.5-6.3,31.4-10.5,47.6
	c-1.5,6.1-5.3,11.3-10.6,14.5c-6.3,4.1-13.7,6.4-21.2,6.6c-4.6,0-9.1-2.1-12.1-5.6c-4.4-4.7-8-10.2-10.6-16.1
	c-3.5-7.8-6-15.9-7.7-24.3c-2-9.9-3.3-19.9-3.7-30c-0.6-10.9-0.6-25.9,0-44.9c0.5-19,1.3-39.6,2.4-61.9c1.1-22.3,2.3-45,3.7-68.2
	c1.3-23.2,2.8-44.4,4.3-63.5c1.5-19.2,3.1-35.2,4.7-48c0.4-7.3,1.8-14.6,4-21.5c2.1-3,5.4-5,9.1-5.3c3.6-0.2,7.1,1.3,9.5,4
	c6.7,5.5,11.8,12.8,14.6,21c2.7,8.1,4.4,16.5,5,25.1c0,0.6,0.1,4.4,0.4,11.3c0.2,6.9,0.4,15.7,0.7,26.2c0.2,10.5,0.6,21.8,1,33.9
	c0.5,12.1,0.8,23.5,1.1,34.2c0.2,10.7,0.6,19.8,0.9,27.5l0.7,13.7L213.2,267.1z M249.2,258.2c7.6-1.4,14.9-4,21.6-7.8
	c7.3-4.1,13.9-9.2,19.7-15.2c6.3-6.5,11.6-13.9,15.8-21.9c4.6-8.8,7.9-18.1,9.9-27.8c1.7-8.2,2.5-16.6,2.3-25
	c0.1-10.7-0.3-21.2-1.1-31.5c-0.6-9-1.9-18-3.8-26.9c-1.7-7.6-3.8-11.4-6.1-11.2c-3,0-5.8,1.6-7.3,4.1c-1.8,2.9-3.4,5.8-4.9,8.9
	c-6,11.7-11.1,23.8-15.3,36.3c-4.5,13.3-8.6,26.7-12.4,40.4c-3.7,13.7-7.1,27.2-9.9,40.5C254.7,234.5,251.9,246.8,249.2,258.2
	L249.2,258.2z"/>
</svg>
