<?xml version="1.0" encoding="utf-8"?>
<!-- Generator: Adobe Illustrator 25.4.1, SVG Export Plug-In . SVG Version: 6.00 Build 0)  -->
<svg version="1.1" id="Layer_1" xmlns="http://www.w3.org/2000/svg" xmlns:xlink="http://www.w3.org/1999/xlink" x="0px" y="0px"
	 width="190px" height="16.4px" viewBox="0 0 190 16.4" enable-background="new 0 0 190 16.4" xml:space="preserve">
<path id="Path_217" fill="#C0C5D4" d="M48.9,0h0.8v0.9c0,0.7-0.4,1-1,1h-0.8V1C47.9,0.3,48.2,0,48.9,0z M47.9,4.4c0-0.7,0.4-1,1-1
	h0.8v9.5h-0.8c-0.7,0-1-0.3-1-1V4.4z"/>
<path id="Path_218" fill="#C0C5D4" d="M54.6,11c0.3,0.2,0.6,0.3,0.9,0.3v0.9c0,0.4-0.2,0.7-0.6,0.8c-0.3,0.1-0.7,0.1-1-0.1
	c-0.5-0.2-0.9-0.6-1.2-1c-0.4-0.6-0.5-1.2-0.5-1.9V1c0-0.7,0.4-1,1-1h0.8v9.8C54.1,10.3,54.3,10.7,54.6,11z"/>
<path id="Path_219" fill="#C0C5D4" d="M64.3,4.2c0.9,0.7,1.4,1.7,1.4,2.8v5.8h-0.6c-0.5,0-0.9-0.3-1.1-0.8c-0.8,0.7-1.8,1.1-2.9,1
	c-1.1,0-2.3-0.4-3.1-1.1c-0.9-0.7-1.4-1.7-1.4-2.8V7c0-1.1,0.5-2.2,1.4-2.8c0.9-0.7,2-1.1,3.1-1.1C62.3,3.1,63.4,3.5,64.3,4.2z
	 M61.1,5c-0.7,0-1.4,0.2-1.9,0.7C58.7,6,58.5,6.5,58.5,7v2.2c0,0.5,0.3,1.1,0.7,1.4c1.1,0.9,2.7,0.9,3.9,0c0.4-0.3,0.7-0.8,0.7-1.4
	V7c0-0.5-0.3-1.1-0.7-1.4C62.5,5.2,61.8,5,61.1,5L61.1,5z"/>
<path id="Path_220" fill="#C0C5D4" d="M79.2,4.4c0-0.7,0.4-1,1-1h0.8v5.8c0.1,1-0.3,2.1-1,2.9c-0.7,0.7-1.8,1.1-2.8,1.1
	c-1.1,0-2.1-0.4-2.9-1.2c-1.5,1.6-4,1.6-5.7,0.1c-0.7-0.8-1.1-1.8-1-2.9V4.4c0-0.7,0.4-1,1-1h0.8v5.8c0,0.6,0.1,1.1,0.5,1.6
	c0.4,0.4,0.9,0.5,1.4,0.5c0.5,0,1-0.2,1.4-0.5c0.4-0.4,0.6-1,0.5-1.5V4.4c0-0.7,0.4-1,1-1h0.8v5.8c0,0.6,0.2,1.1,0.5,1.5
	c0.4,0.3,0.9,0.5,1.4,0.5c0.5,0,1-0.1,1.4-0.5c0.4-0.4,0.5-1,0.5-1.6L79.2,4.4L79.2,4.4z"/>
<path id="Path_221" fill="#C0C5D4" d="M91.7,3.4L88,13.8c-0.1,0.2-0.2,0.5-0.3,0.7c-0.1,0.2-0.2,0.4-0.3,0.6
	c-0.3,0.4-0.6,0.7-1.1,0.9c-0.3,0.1-0.6,0.2-1,0.1c-0.4-0.1-0.6-0.4-0.6-0.8v-0.9c0.2,0,0.4-0.1,0.6-0.1c0.2-0.1,0.4-0.2,0.5-0.5
	l0.4-1c-0.5-0.1-0.9-0.4-1.1-0.9l-2.8-7.8c-0.1-0.2-0.1-0.4,0-0.6c0.1-0.2,0.3-0.3,0.5-0.3h1.2l2.8,7.8h0l2.5-7.1
	c0.1-0.4,0.5-0.7,1-0.7L91.7,3.4L91.7,3.4z"/>
<path id="Path_222" fill="#C0C5D4" d="M99.3,3.6c0.5,0.3,0.9,0.6,1.2,1c0.3,0.5,0.5,1.1,0.5,1.6c0,0.5-0.1,1-0.3,1.4
	c-0.2,0.4-0.5,0.7-0.8,0.9c-0.3,0.3-0.7,0.4-1.1,0.5c-0.4,0.1-0.8,0.2-1.2,0.2h-2.3c-0.1,0-0.2,0-0.4,0c-0.1,0-0.2-0.1-0.3-0.1v0.8
	c0,0.5,0.3,0.9,0.7,1.1c0.4,0.2,0.8,0.4,1.3,0.4c0.5,0.1,0.9,0,1.4-0.1c0.4-0.1,0.8-0.3,1.1-0.6c0.3-0.3,0.8-0.4,1.1-0.2l0.9,0.4
	c-0.2,0.4-0.4,0.7-0.7,1c-0.4,0.5-1,0.8-1.6,1c-0.6,0.2-1.2,0.3-1.9,0.3c-0.5,0-1,0-1.5-0.1c-0.5-0.1-0.9-0.3-1.4-0.6
	c-0.5-0.3-0.8-0.7-1.1-1.3c-0.2-0.5-0.3-1.1-0.3-1.6V6.5c0-0.5,0.1-1,0.3-1.4c0.3-0.7,0.9-1.2,1.6-1.5c0.7-0.3,1.4-0.5,2.2-0.5
	C97.7,3.1,98.6,3.2,99.3,3.6z M98.7,7.1c0.5-0.3,0.7-0.9,0.4-1.4c-0.1-0.1-0.1-0.2-0.2-0.3C98.4,5.2,97.9,5,97.4,5
	c-0.5,0-1,0-1.4,0.1c-0.3,0.1-0.7,0.2-1,0.4c-0.3,0.2-0.4,0.6-0.4,0.9v0.9h3.1C98.1,7.4,98.4,7.3,98.7,7.1L98.7,7.1z"/>
<path id="Path_223" fill="#C0C5D4" d="M102.8,6.7c-0.1-1,0.3-1.9,1.1-2.6c0.6-0.5,1.4-0.8,2.1-0.7h1.2v0.8c0,0.7-0.3,1-1,1H106
	c-0.7,0-1.3,0.5-1.4,1.3c0,0.1,0,0.1,0,0.2v6.2h-0.8c-0.7,0-1-0.3-1-1L102.8,6.7L102.8,6.7z"/>
<path id="Path_224" fill="#C0C5D4" d="M119.6,5.5c-0.4-0.4-0.9-0.5-1.4-0.5c-0.5,0-1,0.2-1.4,0.5c-0.4,0.4-0.6,1-0.5,1.5v5.8h-0.8
	c-0.7,0-1-0.3-1-1V7c0-0.6-0.2-1.1-0.5-1.5c-0.4-0.4-0.9-0.6-1.4-0.5c-0.5,0-1,0.1-1.4,0.5c-0.4,0.4-0.5,1-0.5,1.6v5.8h-0.8
	c-0.7,0-1-0.3-1-1V7c-0.1-1,0.3-2.1,1-2.9c0.7-0.7,1.8-1.1,2.8-1.1c0.9,0,1.8,0.3,2.5,0.9c0.1,0.1,0.3,0.2,0.4,0.4
	c0.1-0.1,0.2-0.3,0.4-0.4c1.6-1.2,3.8-1.2,5.3,0.2c0.7,0.8,1.1,1.8,1,2.9v5.9h-0.8c-0.7,0-1-0.3-1-1V7
	C120.1,6.5,119.9,5.9,119.6,5.5z"/>
<path id="Path_225" fill="#C0C5D4" d="M131.4,4.2c0.9,0.7,1.4,1.7,1.4,2.8v5.8h-0.6c-0.5,0-0.9-0.3-1.1-0.8c-0.8,0.7-1.8,1.1-2.9,1
	c-1.1,0-2.3-0.4-3.1-1.1c-0.9-0.7-1.4-1.7-1.4-2.8V7c0-1.1,0.5-2.2,1.4-2.8c0.9-0.7,2-1.1,3.1-1.1C129.5,3.1,130.6,3.5,131.4,4.2z
	 M128.3,5c-0.7,0-1.4,0.2-1.9,0.7c-0.4,0.3-0.7,0.8-0.7,1.4v2.2c0,0.5,0.3,1.1,0.7,1.4c1.1,0.9,2.7,0.9,3.9,0
	c0.4-0.3,0.7-0.8,0.7-1.4V7c0-0.5-0.3-1.1-0.7-1.4C129.7,5.2,129,5,128.3,5L128.3,5z"/>
<path id="Path_226" fill="#C0C5D4" d="M135,6.7c-0.1-1,0.3-1.9,1.1-2.6c0.6-0.5,1.4-0.8,2.1-0.7h1.2v0.8c0,0.7-0.3,1-1,1h-0.3
	c-0.7,0-1.3,0.5-1.4,1.3c0,0.1,0,0.1,0,0.2v6.2H136c-0.7,0-1-0.3-1-1L135,6.7z"/>
<path id="Path_227" fill="#C0C5D4" d="M141,1c0-0.7,0.4-1,1-1h0.8v7.3h0.7c0.4,0,0.7,0,1-0.4l1.8-2.9c0.2-0.4,0.7-0.7,1.1-0.7h1.5
	l-2.3,3.7c-0.1,0.2-0.2,0.4-0.4,0.5c0.7,0.3,1.2,0.9,1.4,1.6l1.6,3.7h-1.2c-0.5,0.1-0.9-0.2-1.1-0.6l-1-2.4
	c-0.2-0.4-0.6-0.7-1.1-0.7h-2v3.7H142c-0.7,0-1-0.3-1-1L141,1L141,1z"/>
<path id="Path_228" fill="#C0C5D4" d="M157,3.6c0.5,0.3,0.9,0.6,1.2,1c0.3,0.5,0.5,1.1,0.5,1.6c0,0.5-0.1,1-0.3,1.4
	c-0.2,0.4-0.5,0.7-0.8,0.9c-0.3,0.3-0.7,0.4-1.1,0.5c-0.4,0.1-0.8,0.2-1.2,0.2H153c-0.1,0-0.2,0-0.4,0c-0.1,0-0.2-0.1-0.3-0.1v0.8
	c0,0.5,0.3,0.9,0.7,1.1c0.4,0.2,0.8,0.4,1.3,0.4c0.5,0.1,0.9,0,1.4-0.1c0.3-0.1,0.6-0.2,0.9-0.4c0.1-0.1,0.2-0.1,0.2-0.2
	c0.3-0.3,0.8-0.4,1.1-0.2l0.9,0.4c-0.2,0.4-0.4,0.7-0.7,1c-0.4,0.5-1,0.8-1.6,1c-0.6,0.2-1.2,0.3-1.8,0.3c-0.5,0-1,0-1.5-0.1
	c-0.5-0.1-0.9-0.3-1.4-0.6c-0.5-0.3-0.8-0.7-1.1-1.3c-0.2-0.5-0.3-1.1-0.3-1.6V6.5c0-0.5,0.1-1,0.3-1.4c0.3-0.7,0.9-1.2,1.6-1.5
	c0.7-0.3,1.4-0.5,2.2-0.5C155.4,3.1,156.2,3.2,157,3.6z M156.3,7.1c0.5-0.3,0.7-0.9,0.4-1.4c-0.1-0.1-0.1-0.2-0.2-0.3
	c-0.4-0.3-0.9-0.4-1.4-0.5c-0.5,0-1,0-1.4,0.1c-0.3,0.1-0.7,0.2-1,0.4c-0.3,0.2-0.4,0.6-0.4,0.9v0.9h3.1
	C155.7,7.4,156.1,7.3,156.3,7.1L156.3,7.1z"/>
<path id="Path_229" fill="#C0C5D4" d="M164.7,3.4v0.8c0,0.7-0.3,1-1,1h-1.2v4.6c0,0.4,0.1,0.8,0.4,1.1c0.2,0.2,0.6,0.3,0.9,0.3v0.9
	c0,0.4-0.2,0.7-0.6,0.8c-0.3,0.1-0.7,0.1-1-0.1c-0.5-0.2-0.9-0.6-1.2-1c-0.3-0.6-0.5-1.3-0.5-1.9V1c0-0.7,0.3-1,1-1h0.9v3.4H164.7z"
	/>
<path id="Path_230" fill="#C0C5D4" d="M167.3,0h0.8v0.9c0,0.7-0.4,1-1,1h-0.8V1C166.2,0.3,166.6,0,167.3,0z M166.2,4.4
	c0-0.7,0.4-1,1-1h0.8v9.5h-0.8c-0.7,0-1-0.3-1-1V4.4z"/>
<path id="Path_231" fill="#C0C5D4" d="M171.8,4.2c0.8-0.7,1.9-1.1,3-1.1c1.1,0,2.2,0.4,3,1.1c0.8,0.7,1.3,1.7,1.3,2.7v6h-0.8
	c-0.7,0-1-0.3-1-1v-5c0-0.5-0.3-1-0.7-1.3c-1.1-0.8-2.5-0.8-3.6,0c-0.4,0.3-0.6,0.8-0.7,1.3v6h-0.8c-0.7,0-1-0.3-1-1v-5
	C170.4,5.8,170.9,4.8,171.8,4.2z"/>
<path id="Path_232" fill="#C0C5D4" d="M188.6,4.2c0.9,0.7,1.4,1.7,1.4,2.8v5.8c0,0.5-0.1,1.1-0.4,1.6c-0.5,0.9-1.4,1.6-2.4,1.8
	c-0.5,0.2-1.1,0.2-1.6,0.2c-0.5,0-1-0.1-1.5-0.1c-0.3,0-0.7-0.2-0.9-0.5c-0.1-0.2-0.1-0.5,0-0.8l0.2-0.7c0.5,0.2,1.1,0.3,1.7,0.3
	c0.6,0,1.1,0,1.7-0.2c0.8-0.1,1.4-0.8,1.4-1.6v-0.4c-1.8,1.1-4.1,1-5.8-0.4c-0.9-0.7-1.4-1.7-1.4-2.8V7c0-1.1,0.5-2.2,1.4-2.8
	c0.9-0.7,2-1.1,3.1-1.1C186.6,3.1,187.7,3.5,188.6,4.2z M185.5,5c-0.7,0-1.4,0.2-1.9,0.7c-0.4,0.3-0.7,0.8-0.7,1.4v2.2
	c0,0.5,0.3,1.1,0.7,1.4c1.1,0.9,2.7,0.9,3.9,0c0.4-0.3,0.7-0.8,0.7-1.4V7c0-0.5-0.3-1.1-0.7-1.4C186.9,5.2,186.2,5,185.5,5z"/>
<g id="Group_197" transform="translate(0 3.982)">
	<path id="Path_233" fill="#C0C5D4" d="M3.7,3c0-0.8-0.1-1.6-1-1.6c-0.6,0-0.9,0.2-0.9,0.9c0,0.7,0.4,1,1,1.3C3.5,4,4.2,4.5,4.8,5
		c0.5,0.5,0.8,1.2,0.8,1.9c0.1,1.4-1,2.6-2.4,2.6c-0.2,0-0.3,0-0.5,0C1.4,9.7,0.2,8.8,0,7.5C0,7.2,0,7,0,6.8V6.1h1.7v0.5
		c0,0.9,0.2,1.5,1.1,1.5c0.5,0.1,1-0.3,1.1-0.8c0-0.1,0-0.2,0-0.3c0-0.5-0.3-1-0.7-1.2c-1-0.6-1.9-1.3-2.7-2.1
		C0.2,3.4,0.1,2.9,0,2.4C0,0.8,0.9,0,2.7,0c2.7,0,2.6,2.1,2.6,3L3.7,3z"/>
	<path id="Path_234" fill="#C0C5D4" d="M7.5,9.3V0.2h1.7v9.1H7.5z"/>
	<path id="Path_235" fill="#C0C5D4" d="M10.7,0.2h5.7v1.3h-2v7.8h-1.7V1.6h-2V0.2z"/>
	<path id="Path_236" fill="#C0C5D4" d="M17.9,9.3V0.2h4.8v1.3h-3.1v2.3h2.8v1.3h-2.8V8h3.1v1.3H17.9z"/>
	<path id="Path_237" fill="#C0C5D4" d="M28,9.3V0.2h2.7c0.7-0.1,1.4,0.1,1.9,0.7c0.3,0.5,0.5,1.1,0.4,1.6c0.1,0.8-0.3,1.6-1.1,1.9v0
		c1,0.1,1.3,0.9,1.3,2.1c0,0.4,0,0.8-0.1,1.1C33,8.7,32,9.4,31,9.3H28z M30,3.9c0.4,0,0.9,0,1.2-0.3c0.2-0.3,0.2-0.6,0.2-1
		c0-0.7-0.1-1-0.9-1h-0.8v2.3H30z M30,8c0.3,0,0.7,0,1-0.1c0.5-0.2,0.5-0.8,0.5-1.3c0-1-0.2-1.4-1.3-1.4h-0.7V8L30,8L30,8z"/>
	<path id="Path_238" fill="#C0C5D4" d="M37.4,2.6c0.2,0.4,0.3,0.9,0.4,1.4h0c0.1-0.6,0.3-1.2,0.6-1.7l0.8-2.1H41l-2.4,5.2v3.9h-1.7
		V5.5l-2.4-5.2h1.9L37.4,2.6z"/>
</g>
</svg>
