<?xml version="1.0" encoding="utf-8"?>
<!-- Generator: Adobe Illustrator 25.4.1, SVG Export Plug-In . SVG Version: 6.00 Build 0)  -->
<svg version="1.1" id="Layer_1" xmlns="http://www.w3.org/2000/svg" xmlns:xlink="http://www.w3.org/1999/xlink" x="0px" y="0px"
	 width="48.7px" height="48.7px" viewBox="0 0 48.7 48.7" enable-background="new 0 0 48.7 48.7" xml:space="preserve">
<g id="social-ig" transform="translate(-1359.843 -847.828)">
	<g id="Group_113">
		<path id="Path_194" fill="#FFFFFF" d="M1384.2,864.3c2.6,0,2.9,0,3.9,0.1c0.6,0,1.2,0.1,1.8,0.3c0.8,0.3,1.5,1,1.8,1.8
			c0.2,0.6,0.3,1.2,0.3,1.8c0,1,0.1,1.3,0.1,3.9s0,2.9-0.1,3.9c0,0.6-0.1,1.2-0.3,1.8c-0.3,0.8-1,1.5-1.8,1.8
			c-0.6,0.2-1.2,0.3-1.8,0.3c-1,0-1.3,0.1-3.9,0.1s-2.9,0-3.9-0.1c-0.6,0-1.2-0.1-1.8-0.3c-0.8-0.3-1.5-1-1.8-1.8
			c-0.2-0.6-0.3-1.2-0.3-1.8c0-1-0.1-1.3-0.1-3.9s0-2.9,0.1-3.9c0-0.6,0.1-1.2,0.3-1.8c0.3-0.8,1-1.5,1.8-1.8
			c0.6-0.2,1.2-0.3,1.8-0.3C1381.3,864.3,1381.6,864.3,1384.2,864.3 M1384.2,862.5c-2.6,0-3,0-4,0.1c-0.8,0-1.6,0.2-2.3,0.4
			c-1.3,0.5-2.3,1.5-2.8,2.8c-0.3,0.8-0.4,1.5-0.4,2.3c0,1-0.1,1.4-0.1,4s0,3,0.1,4c0,0.8,0.2,1.6,0.4,2.3c0.5,1.3,1.5,2.3,2.8,2.8
			c0.8,0.3,1.5,0.4,2.3,0.5c1,0,1.4,0.1,4,0.1s3,0,4-0.1c0.8,0,1.6-0.2,2.3-0.5c1.3-0.5,2.3-1.5,2.8-2.8c0.3-0.8,0.4-1.5,0.4-2.3
			c0-1,0.1-1.4,0.1-4s0-3-0.1-4c0-0.8-0.2-1.6-0.4-2.3c-0.5-1.3-1.5-2.3-2.8-2.8c-0.8-0.3-1.5-0.4-2.3-0.4
			C1387.2,862.5,1386.8,862.5,1384.2,862.5"/>
		<path id="Path_195" fill="#FFFFFF" d="M1384.2,867.2c-2.7,0-5,2.2-5,5s2.2,5,5,5c2.7,0,5-2.2,5-5
			C1389.2,869.4,1386.9,867.2,1384.2,867.2 M1384.2,875.4c-1.8,0-3.2-1.4-3.2-3.2s1.4-3.2,3.2-3.2c1.8,0,3.2,1.4,3.2,3.2
			C1387.4,874,1386,875.4,1384.2,875.4L1384.2,875.4"/>
		<path id="Path_196" fill="#FFFFFF" d="M1390.5,867c0,0.6-0.5,1.2-1.2,1.2c-0.6,0-1.2-0.5-1.2-1.2c0-0.6,0.5-1.2,1.2-1.2
			C1390,865.9,1390.5,866.4,1390.5,867C1390.5,867,1390.5,867,1390.5,867"/>
	</g>
	<path id="Path_197_00000070092561074598872550000002813795262376950702_" fill="#BF7B30" d="M1384.2,896.5
		c-13.5,0-24.4-10.9-24.4-24.4c0-13.5,10.9-24.4,24.4-24.4c13.5,0,24.4,10.9,24.4,24.4C1408.5,885.6,1397.6,896.5,1384.2,896.5z
		 M1384.2,849.8c-12.3,0-22.4,10-22.4,22.4c0,12.3,10,22.4,22.4,22.4c12.3,0,22.4-10,22.4-22.4
		C1406.5,859.8,1396.5,849.8,1384.2,849.8z"/>
</g>
</svg>
