<?xml version="1.0" encoding="utf-8"?>
<!-- Generator: Adobe Illustrator 25.4.1, SVG Export Plug-In . SVG Version: 6.00 Build 0)  -->
<svg version="1.1" id="Layer_1" xmlns="http://www.w3.org/2000/svg" xmlns:xlink="http://www.w3.org/1999/xlink" x="0px" y="0px"
	 width="48.7px" height="48.7px" viewBox="0 0 48.7 48.7" enable-background="new 0 0 48.7 48.7" xml:space="preserve">
<g id="Group_273" transform="translate(-1360 -3651)">
	<path id="Path_197" fill="#BF7B30" d="M1384.4,3699.7c-13.5,0-24.4-10.9-24.4-24.4c0-13.5,10.9-24.4,24.4-24.4
		c13.5,0,24.4,10.9,24.4,24.4C1408.7,3688.8,1397.8,3699.7,1384.4,3699.7z M1384.4,3653c-12.3,0-22.4,10-22.4,22.4
		c0,12.3,10,22.4,22.4,22.4c12.3,0,22.4-10,22.4-22.4C1406.7,3663,1396.7,3653,1384.4,3653z"/>
	<path class="icon" fill="#FFFFFF" d="M1393.1,3675.6v6.7h-3.9v-6.2c0-1.6-0.6-2.6-2-2.6c-0.9,0-1.7,0.6-2,1.4
		c-0.1,0.3-0.1,0.6-0.1,0.9v6.5h-3.9c0,0,0.1-10.6,0-11.6h3.9v1.7c0,0,0,0,0,0h0v0c0.7-1.2,2.1-2,3.5-1.9
		C1391.2,3670.3,1393.1,3672,1393.1,3675.6z M1377.2,3665c-1.1-0.1-2.1,0.7-2.2,1.8c-0.1,1.1,0.7,2.1,1.8,2.2c0.1,0,0.2,0,0.3,0h0
		c1.1,0.1,2.1-0.7,2.2-1.8c0.1-1.1-0.7-2.1-1.8-2.2C1377.4,3665,1377.3,3665,1377.2,3665L1377.2,3665z M1375.2,3682.3h3.9v-11.6
		h-3.9V3682.3z"/>
</g>
</svg>
