<?xml version="1.0" encoding="utf-8"?>
<!-- Generator: Adobe Illustrator 25.4.1, SVG Export Plug-In . SVG Version: 6.00 Build 0)  -->
<svg version="1.1" id="Layer_1" xmlns="http://www.w3.org/2000/svg" xmlns:xlink="http://www.w3.org/1999/xlink" x="0px" y="0px"
	 width="32.7px" height="37.5px" viewBox="0 0 32.7 37.5" enable-background="new 0 0 32.7 37.5" xml:space="preserve">
<g id="Group_263" transform="translate(4.118)">
	<path id="Path_297" fill="#0E1326" d="M21.1,0H1.9C0.9,0,0,0.9,0,1.9c0,0,0,0,0,0v33.6c0,1.1,0.9,1.9,1.9,1.9h24.7
		c1.1,0,1.9-0.9,1.9-1.9V8.4c0-0.5-0.2-0.9-0.5-1.3l-5.6-6.4C22.2,0.2,21.6,0,21.1,0z M26.5,8.2h-5.4V2L26.5,8.2z M26.7,35.5H1.9
		V1.9h17.2v6.3c0,1.1,0.9,1.9,1.9,1.9h5.6L26.7,35.5z"/>
</g>
<path id="Rectangle_138" fill="#FC2130" d="M4.5,6.8h10.4c2.5,0,4.5,2,4.5,4.5l0,0c0,2.5-2,4.5-4.5,4.5H4.5c-2.5,0-4.5-2-4.5-4.5
	l0,0C0,8.8,2,6.8,4.5,6.8z"/>
<g id="Group_264" transform="translate(9.441 20.038)">
	<path id="Rectangle_139" fill="#0E1326" d="M1,0h15.7c0.5,0,1,0.4,1,1c0,0,0,0,0,0v0c0,0.6-0.4,1-1,1H1C0.4,2,0,1.6,0,1l0,0
		C0,0.4,0.4,0,1,0z"/>
	<path id="Rectangle_140" fill="#0E1326" d="M1,4.2h15.7c0.5,0,1,0.4,1,1c0,0,0,0,0,0v0c0,0.5-0.4,1-1,1l0,0H1c-0.6,0-1-0.4-1-1l0,0
		C0,4.7,0.4,4.2,1,4.2z"/>
	<path id="Rectangle_141" fill="#0E1326" d="M1,8.5h15.7c0.5,0,1,0.4,1,1c0,0,0,0,0,0v0c0,0.5-0.4,1-1,1l0,0H1c-0.6,0-1-0.4-1-1l0,0
		C0,8.9,0.4,8.5,1,8.5z"/>
</g>
<g id="Group_265" transform="translate(3.609 9.009)">
	<path id="Path_298" fill="#FFFFFF" d="M2,0c1,0,1.7,0.5,1.7,1.5c0,0.8-0.6,1.4-1.4,1.5c-0.1,0-0.2,0-0.2,0H1v1.6H0V0L2,0z M1,2.1
		h0.9c0.4,0,0.8-0.1,0.8-0.6c0-0.5-0.3-0.7-0.8-0.7H1L1,2.1z"/>
	<path id="Path_299" fill="#FFFFFF" d="M4.2,0h1.8c1.3,0,2.2,1.1,2.2,2.3c0,1.2-1,2.1-2.2,2.2H4.2V0z M6,3.7c0.9,0,1.3-0.5,1.3-1.4
		S6.9,0.8,6,0.8H5.2v2.9H6z"/>
	<path id="Path_300" fill="#FFFFFF" d="M12.1,0.8H9.9v1h1.9v0.8H9.9v1.9H9V0h3.2L12.1,0.8z"/>
</g>
</svg>
