<?xml version="1.0" encoding="utf-8"?>
<!-- Generator: Adobe Illustrator 25.4.1, SVG Export Plug-In . SVG Version: 6.00 Build 0)  -->
<svg version="1.1" id="image" xmlns="http://www.w3.org/2000/svg" xmlns:xlink="http://www.w3.org/1999/xlink" x="0px" y="0px"
	 width="33.4px" height="38.3px" viewBox="0 0 33.4 38.3" enable-background="new 0 0 33.4 38.3" xml:space="preserve">
<g id="Group_272" transform="translate(-785.497 -599.938)">
	<g id="Group_268" transform="translate(789.7 599.938)">
		<path id="Path_301" fill="#101425" d="M21.5,0H2C0.9,0,0,0.9,0,2l0,0v34.3c0,1.1,0.9,2,2,2l0,0h25.2c1.1,0,2-0.9,2-2l0,0V8.5
			c0-0.5-0.2-0.9-0.5-1.3L23,0.7C22.6,0.2,22.1,0,21.5,0z M27.1,8.4h-5.6V2L27.1,8.4z M27.2,36.3H2V2h17.6v6.4c0,1.1,0.9,2,2,2h5.7
			L27.2,36.3z"/>
	</g>
	<g id="Group_269" transform="translate(795.132 620.386)">
		<path id="Rectangle_142" fill="#101425" d="M1,0h16c0.6,0,1,0.5,1,1c0,0,0,0,0,0l0,0c0,0.6-0.5,1-1,1H1C0.5,2,0,1.6,0,1
			c0,0,0,0,0,0l0,0C0,0.5,0.5,0,1,0C1,0,1,0,1,0z"/>
		<path id="Rectangle_143" fill="#101425" d="M1,4.3h16c0.6,0,1,0.5,1,1c0,0,0,0,0,0l0,0c0,0.6-0.5,1-1,1H1c-0.6,0-1-0.5-1-1
			c0,0,0,0,0,0l0,0C0,4.8,0.5,4.3,1,4.3C1,4.3,1,4.3,1,4.3z"/>
		<path id="Rectangle_144" fill="#101425" d="M1,8.6h16c0.6,0,1,0.5,1,1c0,0,0,0,0,0l0,0c0,0.6-0.5,1-1,1H1c-0.6,0-1-0.5-1-1
			c0,0,0,0,0,0l0,0C0,9.1,0.5,8.6,1,8.6C1,8.6,1,8.6,1,8.6z"/>
	</g>
	<g id="Group_271" transform="translate(785.497 606.88)">
		<path id="Rectangle_145" fill="#E54418" d="M4.6,0h10.6c2.5,0,4.6,2.1,4.6,4.6v0c0,2.5-2.1,4.6-4.6,4.6H4.6C2.1,9.2,0,7.2,0,4.6v0
			C0,2.1,2.1,0,4.6,0z"/>
		<g id="Group_270" transform="translate(4.013 2.428)">
			<path id="Path_302" fill="#FFFFFF" d="M1.9,0c1,0,1.7,0.5,1.7,1.5c0,0.8-0.6,1.4-1.4,1.5c-0.1,0-0.2,0-0.2,0H1v1.6H0V0H1.9z
				 M1,2.1h0.9c0.4,0,0.8-0.1,0.8-0.6c0-0.5-0.3-0.7-0.8-0.7H1L1,2.1z"/>
			<path id="Path_303" fill="#FFFFFF" d="M6.2,0c1,0,1.7,0.5,1.7,1.5c0,0.8-0.6,1.4-1.4,1.5c-0.1,0-0.2,0-0.2,0h-1v1.6h-1V0H6.2z
				 M5.2,2.1h0.9c0.4,0,0.8-0.1,0.8-0.6c0-0.5-0.3-0.7-0.8-0.7H5.2V2.1z"/>
			<path id="Path_304" fill="#FFFFFF" d="M11.8,0.8h-1.4v3.7h-1V0.8H8.1V0h3.7V0.8z"/>
		</g>
	</g>
</g>
</svg>
