<?xml version="1.0" encoding="utf-8"?>
<!-- Generator: Adobe Illustrator 25.4.1, SVG Export Plug-In . SVG Version: 6.00 Build 0)  -->
<svg version="1.1" id="Layer_1" xmlns="http://www.w3.org/2000/svg" xmlns:xlink="http://www.w3.org/1999/xlink" x="0px" y="0px"
	 width="141.9px" height="82.3px" viewBox="0 0 141.9 82.3" enable-background="new 0 0 141.9 82.3" xml:space="preserve">
<g id="Group_241" transform="translate(-936.568 -490.729)">
	<g id="Group_241-2" transform="translate(967.916 490.729)">
		<path id="Path_277" fill="#FFFFFF" d="M3.1,22.6v15.2H0V0.5h12.7c3.9,0,6.9,1,9.2,3c2.3,2.1,3.5,5.1,3.4,8.2
			c0,3.5-1.1,6.2-3.2,8.1c-2.2,1.9-5.3,2.9-9.4,2.9H3.1z M3.1,19.9h9.5c3.1,0,5.4-0.7,7-2.2c1.7-1.6,2.5-3.8,2.4-6.1
			c0.1-2.3-0.8-4.5-2.4-6.2c-1.9-1.6-4.3-2.5-6.8-2.3H3.1L3.1,19.9z"/>
		<path id="Path_278" fill="#FFFFFF" d="M53.3,28.6c0.1-1.9-0.7-3.7-2.2-4.9c-1.4-1.2-4.1-2.3-8-3.4c-3-0.7-5.8-1.9-8.4-3.5
			c-3.9-2.7-5-8-2.3-11.9c0.6-0.8,1.2-1.5,2-2.1c2.6-1.9,5.8-2.8,9-2.7c2.3,0,4.6,0.5,6.6,1.4c1.9,0.9,3.4,2.3,4.5,4
			c1.1,1.7,1.6,3.7,1.6,5.7h-3.2c0.1-2.3-0.9-4.6-2.6-6.1c-2-1.6-4.5-2.5-7-2.3c-2.4-0.1-4.8,0.5-6.8,1.9c-1.6,1.1-2.6,3-2.5,5
			c0,1.8,0.8,3.6,2.3,4.6c2.2,1.5,4.7,2.6,7.3,3.2c2.6,0.6,5.2,1.6,7.6,2.8c1.6,0.8,2.9,2,3.9,3.5c0.9,1.5,1.3,3.1,1.3,4.8
			c0.1,2.8-1.2,5.4-3.5,7.1c-2.7,1.9-6,2.8-9.3,2.7c-2.5,0-4.9-0.4-7.2-1.4c-2-0.8-3.7-2.2-5-3.9c-1.1-1.7-1.7-3.7-1.7-5.8H33
			c-0.1,2.4,1,4.7,2.9,6.2c2.3,1.6,5,2.4,7.8,2.3c2.5,0.1,4.9-0.5,7-1.9C52.4,32.6,53.4,30.6,53.3,28.6z"/>
		<path id="Path_279" fill="#FFFFFF" d="M63.3,37.8V0.5h11c4,0,7,0.8,9.1,2.5s3.1,4.1,3.1,7.3c0,1.8-0.5,3.6-1.6,5
			c-1.1,1.4-2.6,2.5-4.3,3.1c4.2,0.9,7.3,4.6,7.2,8.9c0.2,2.9-1,5.8-3.2,7.7c-2.1,1.8-5.1,2.8-8.9,2.8L63.3,37.8z M66.4,17.2H75
			c2.2,0.1,4.3-0.6,6.1-1.9c1.5-1.3,2.3-3.2,2.2-5.2c0.2-2-0.7-4-2.2-5.3c-1.5-1.1-3.7-1.7-6.8-1.7h-7.9L66.4,17.2z M66.4,19.9v15.2
			h9.4c2.3,0.1,4.6-0.6,6.4-2.1c1.6-1.4,2.5-3.5,2.4-5.7c0.1-2.1-0.7-4.1-2.3-5.5c-1.8-1.4-4-2.1-6.3-2L66.4,19.9z"/>
	</g>
	<g id="Group_242" transform="translate(936.568 516.772)">
		<path id="Path_280" fill="#FFFFFF" d="M8.5,28.8c0.9-3.2,1.5-5.8,2-7.8c0.5-2,0.9-3.8,1.3-5.3c0.4-1.5,0.9-2.9,1.4-4.4
			c0.5-1.4,1.3-3.1,2.3-5c0.4-0.7,0.7-1.5,1.2-2.2c0.4-0.7,0.9-1.3,1.4-1.9c0.5-0.6,1.1-1.1,1.8-1.5C20.7,0.3,21.5,0,22.3,0
			c1.2,0,2.4,0.6,3.1,1.6c0.9,1.2,1.6,2.5,2,3.9c0.5,1.6,0.8,3.2,1,4.8c0.2,1.5,0.2,2.9,0.2,4.4c-0.1,2-0.3,4-0.7,6
			c-0.4,2-1.2,3.9-2.3,5.6c-1.3,2-3,3.7-5,5.1c-1.6,1.1-3.5,1.8-5.4,1.9c-0.9,0.1-1.8-0.1-2.7-0.4c-0.3,0.8-0.5,1.5-0.5,2.3
			c-0.2,1.2-0.4,2.6-0.7,4.3s-0.6,3.6-1,5.7c-0.4,2.1-0.8,4.2-1.4,6.4c-0.2,0.8-0.7,1.5-1.4,1.9c-0.8,0.6-1.8,0.9-2.8,0.9
			c-0.6,0-1.2-0.3-1.6-0.8c-0.6-0.6-1.1-1.4-1.4-2.2c-0.5-1-0.8-2.1-1-3.2c-0.3-1.3-0.4-2.7-0.5-4c-0.1-1.5-0.1-3.5,0-6
			c0.1-2.5,0.2-5.3,0.3-8.3c0.1-3,0.3-6,0.5-9.1c0.2-3.1,0.4-5.9,0.6-8.5c0.2-2.6,0.4-4.7,0.6-6.4c0.1-1,0.2-1.9,0.5-2.9
			c0.3-0.4,0.7-0.7,1.2-0.7c0.5,0,0.9,0.2,1.3,0.5C6,3.8,6.7,4.7,7,5.8C7.4,6.9,7.6,8,7.7,9.2c0,0.1,0,0.6,0,1.5s0.1,2.1,0.1,3.5
			c0,1.4,0.1,2.9,0.1,4.5c0.1,1.6,0.1,3.1,0.1,4.6c0,1.4,0.1,2.6,0.1,3.7l0.1,1.8L8.5,28.8z M13.3,27.6c1-0.2,2-0.5,2.9-1
			c1-0.5,1.9-1.2,2.6-2c0.8-0.9,1.5-1.9,2.1-2.9c0.6-1.2,1.1-2.4,1.3-3.7c0.2-1.1,0.3-2.2,0.3-3.3c0-1.4,0-2.8-0.2-4.2
			c-0.1-1.2-0.3-2.4-0.5-3.6c-0.2-1-0.5-1.5-0.8-1.5c-0.4,0-0.8,0.2-1,0.6c-0.2,0.4-0.5,0.8-0.7,1.2c-0.8,1.6-1.5,3.2-2,4.9
			c-0.6,1.8-1.2,3.6-1.7,5.4s-0.9,3.6-1.3,5.4C14.1,24.4,13.7,26.1,13.3,27.6L13.3,27.6z"/>
		<path id="Path_281" fill="#FFFFFF" d="M31.8,43.7c0.4,0,0.9-0.5,1.5-1.5c0.6-1,1.4-2.3,2.2-3.8c0.8-1.6,1.8-3.3,2.7-5.3
			c1-2,1.9-4,2.9-6c0.1-0.3,0.3-0.7,0.5-0.9c0.1-0.1,0.3-0.2,0.5-0.3c0.2,0,0.4,0.2,0.5,0.4c0.1,0.4,0,0.7-0.1,1.1
			c-0.2,0.4-0.5,1.2-1,2.5c-0.5,1.2-1,2.7-1.7,4.3c-0.7,1.6-1.4,3.3-2.2,5.1c-0.8,1.8-1.7,3.5-2.5,5c-0.7,1.3-1.6,2.6-2.6,3.8
			c-0.6,0.8-1.4,1.4-2.4,1.5c-0.9,0.1-1.7-0.2-2.4-0.7c-0.7-0.5-1.2-1.2-1.6-1.9c-0.4-0.7-0.7-1.5-0.9-2.3c-0.2-0.6-0.3-1.3-0.3-2
			c-0.1-2.5,0-5,0.3-7.6c0.3-2.7,0.7-5.5,1.3-8.3s1.2-5.6,2-8.2c0.8-2.7,1.6-5.1,2.4-7.2c0.3-0.6,0.6-1.3,0.9-1.9
			c0.4-0.6,0.8-1.2,1.2-1.7c0.4-0.5,0.8-0.9,1.3-1.3c0.4-0.3,0.8-0.5,1.2-0.5c0.4,0,0.8,0.1,1.1,0.4c0.3,0.3,0.6,0.7,0.7,1.1
			c0.2,0.5,0.3,0.9,0.3,1.4c0,0.5,0,1,0,1.4c-0.2,1.2-0.5,2.7-0.8,4.4c-0.4,1.7-0.8,3.5-1.3,5.3c-0.5,1.8-1,3.5-1.6,5.1
			c-0.4,1.3-1,2.6-1.6,3.9c-0.2,0.5-0.3,1-0.4,1.5c-0.2,0.8-0.4,1.8-0.5,2.9s-0.3,2.3-0.5,3.5c-0.1,1.1-0.2,2.3-0.2,3.4
			c0,0.9,0,1.7,0.2,2.6C31.2,43.4,31.4,43.7,31.8,43.7z"/>
		<path id="Path_282" fill="#FFFFFF" d="M50.3,25.8c0.2-0.3,0.4-0.7,0.7-1.1c0.3-0.4,0.5-0.8,0.8-1.1c0.2-0.3,0.5-0.6,0.8-0.9
			c0.2-0.2,0.4-0.3,0.7-0.4c0.1,0,0.2,0,0.3,0c0.6,0.4,0.9,1.1,0.8,1.9c-0.1,1.1-0.3,2.2-0.5,3.3c-0.3,1.3-0.6,2.7-0.9,4.2
			c-0.3,1.5-0.5,3.1-0.5,4.6c0.8-0.9,1.6-1.8,2.2-2.8c0.7-1.1,1.4-2.1,2.1-3.2c0.6-1,1.2-2,1.7-2.9c0.5-0.9,0.9-1.5,1.1-1.9
			c0.1-0.3,0.4-0.5,0.7-0.5c0.2,0,0.4,0.1,0.5,0.2c0.1,0.2,0.2,0.4,0.1,0.6c-0.4,1.2-0.8,2.3-1.4,3.3c-0.7,1.3-1.5,2.7-2.4,4
			c-0.9,1.3-1.8,2.5-2.6,3.6c-0.6,0.8-1.3,1.5-2,2.1c-0.5,0.3-1,0.5-1.6,0.6c-0.3,0-0.6,0-0.8-0.1c-0.3-0.1-0.5-0.3-0.6-0.6
			c-0.2-0.5-0.4-1-0.6-1.5c-0.1-0.5-0.2-1.1-0.1-1.6c0-0.4,0-0.9,0.1-1.3c0-0.4,0.1-0.9,0.2-1.3c-0.2,0.2-0.4,0.4-0.6,0.6
			c-0.1,0.2-0.3,0.4-0.4,0.7s-0.4,0.6-0.6,1c-0.3,0.5-0.7,1-1.1,1.4c-0.7,0.9-1.8,1.5-2.9,1.6c-0.8,0-1.6-0.2-2.2-0.7
			c-0.7-0.6-1.2-1.4-1.3-2.3c-0.3-1.3-0.3-2.7,0-4c0.1-0.3,0.2-0.8,0.3-1.4c0.1-0.7,0.3-1.4,0.6-2c0.3-0.8,0.7-1.5,1.2-2.2
			c0.5-0.7,1.2-1.3,2-1.8c0.8-0.5,1.6-0.8,2.5-0.8c1.3,0,2.5,0.4,3.4,1.3c0.2,0.1,0.4,0.3,0.4,0.6C50,25.3,50.1,25.5,50.3,25.8z
			 M45.4,32.5c0.1,0,0.2,0,0.2-0.1c0.6-0.7,1.2-1.4,1.7-2.2c0.5-0.7,1.1-1.5,1.6-2.3c0.2-0.2,0.2-0.5,0.2-0.7
			C49,27,49,26.8,48.9,26.6c-0.1-0.2-0.2-0.3-0.3-0.3c-0.1,0-0.2,0-0.2,0.1c-0.4,0.4-0.8,0.8-1.1,1.3c-0.4,0.6-0.7,1.2-0.9,1.8
			c-0.2,0.6-0.5,1.2-0.7,1.8C45.5,31.6,45.4,32.1,45.4,32.5L45.4,32.5z"/>
		<path id="Path_283" fill="#FFFFFF" d="M71.1,26.2c-0.2,0.3-0.4,0.6-0.5,1c-0.3,0.5-0.5,1.1-0.8,1.9s-0.6,1.5-1,2.2
			c-0.3,0.8-0.7,1.5-1,2.2c-0.5,1.2-1.3,2.3-2.2,3.2c-0.7,0.8-1.7,1.2-2.8,1.3c-2.2,0-4-1.5-4.5-3.7c-0.2-1.1-0.3-2.1-0.2-3.2
			c0.1-1.1,0.3-2.3,0.5-3.4c0.3-1.1,0.6-2.2,0.9-3c0.3-1,0.8-2,1.6-2.7c0.6-0.6,1.3-0.9,2.1-1c0.8,0,1.5,0.4,1.9,1.1
			c0.5,1.1,0.6,2.4,0.2,3.6c0,0.2-0.2,0.7-0.4,1.6c-0.2,0.8-0.5,1.7-0.7,2.6c-0.2,0.9-0.4,1.8-0.6,2.5s-0.1,1.1,0,1.1
			c0.3,0,0.8-0.5,1.3-1.4c0.6-0.9,1.2-2,1.9-3.2c0.7-1.2,1.3-2.3,2-3.5c0.4-0.8,0.9-1.6,1.6-2.2c0.4-0.4,0.9-0.7,1.4-0.7
			c0.4,0,0.8,0.1,1.2,0.3c0.4,0.2,0.7,0.6,1,1c0.2,0.4,0.4,0.8,0.5,1.2c0.1,0.5,0.2,1,0.3,1.4c0.1,0.6,0.1,1.2,0.2,2l0.1,2.8l0.2,0
			c0.2,0,0.3-0.1,0.4-0.2c0.1-0.1,0.2-0.2,0.3-0.3c0.3-0.3,0.5-0.5,0.8-0.7c0.3-0.2,0.5-0.5,0.8-0.7c0.1-0.1,0.2-0.1,0.3-0.1
			c0.3,0,0.6,0.1,0.7,0.4c0.2,0.3,0.2,0.7,0,1c-0.1,0.3-0.3,0.5-0.5,0.7c-0.3,0.3-0.6,0.7-0.9,1c-0.3,0.4-0.7,0.7-1,1
			c-0.3,0.3-0.6,0.5-0.7,0.7c-0.2,0.2-0.4,0.4-0.5,0.7c-0.1,0.3-0.2,0.6-0.2,0.8c0,0.8-0.1,1.8-0.2,3s-0.2,2.5-0.5,3.9
			c-0.2,1.5-0.6,3.1-1,4.6c-0.5,1.7-1.1,3.4-1.8,5c-0.5,1.3-1.3,2.4-2.4,3.2c-0.9,0.7-1.9,1.1-3,1.1c-1.8,0.1-3.4-0.8-4.2-2.4
			c-0.5-1-0.7-2-0.6-3.1c0.1-1.5,0.4-2.9,1.1-4.2c0.6-1.5,1.4-2.9,2.4-4.2c0.9-1.2,1.8-2.3,2.7-3.3s1.6-1.7,2.2-2.4
			c0.5-0.4,0.8-0.9,1-1.4c0.1-0.3,0.1-0.9,0.2-1.8s0.2-1.9,0.3-3c0.1-1.1,0.1-2,0.2-2.8C71.2,26.7,71.2,26.3,71.1,26.2z M69.1,40.7
			c-0.6,0.5-1.1,1.1-1.5,1.7c-0.6,0.8-1.2,1.6-1.7,2.5c-0.5,0.9-1,1.8-1.3,2.8c-0.3,0.8-0.5,1.7-0.5,2.5l0,0.6
			c0,0.2,0.1,0.3,0.3,0.4c0.1,0,0.2-0.1,0.3-0.3s0.3-0.4,0.5-0.6c0.2-0.2,0.3-0.4,0.4-0.6c0.1-0.1,0.1-0.3,0.2-0.4
			c0.4-0.7,0.8-1.5,1.1-2.2c0.4-0.8,0.7-1.7,1-2.5s0.6-1.6,0.8-2.3C69,41.8,69.1,41.3,69.1,40.7L69.1,40.7z"/>
		<path id="Path_284" fill="#FFFFFF" d="M96.8,23.8c0.2-0.2,0.4-0.4,0.7-0.5c0.2,0,0.4,0.1,0.6,0.3c0.1,0.3,0.1,0.6-0.1,0.8
			c-0.1,0.1-0.3,0.5-0.8,1.2s-1,1.5-1.7,2.4c-0.7,0.9-1.4,1.9-2.3,3c-0.8,1-1.7,2-2.6,2.9c-0.8,0.8-1.7,1.6-2.7,2.3
			c-0.7,0.6-1.6,0.9-2.5,1c-0.6,0.1-1.3,0-1.9-0.3c-0.4-0.2-0.8-0.5-1.1-0.8c0,0.5,0,1.1-0.1,1.8c0,0.7,0,1.5-0.1,2.2
			c0,0.8,0,1.5,0,2.3c0,0.8,0,1.4,0,2c0.1,0.8-0.2,1.5-0.7,2.1c-0.5,0.5-1.2,0.8-1.9,0.9c-0.4,0-0.8-0.1-1.2-0.3
			c-0.4-0.3-0.7-0.7-0.8-1.2c-0.5-1.7-0.7-3.5-0.7-5.3c0-2.2,0-4.4,0.3-6.7c0.2-2.3,0.5-4.7,0.9-7.2s0.8-4.7,1.2-6.8
			c0.4-2.1,0.8-3.9,1.2-5.5s0.7-2.7,1-3.4c0.3-0.8,0.6-1.8,1-2.9c0.4-1.1,0.9-2.2,1.5-3.2c0.6-1,1.3-1.8,2.1-2.6
			c0.7-0.7,1.7-1.1,2.7-1.2c0.6,0,1.1,0.1,1.7,0.3c0.5,0.2,1,0.6,1.4,1c0.4,0.4,0.7,0.9,0.8,1.5C93,4.5,93.1,5.2,93,5.8
			c0,0.4,0,0.7,0,1.1c0,0.4,0,0.9-0.1,1.3c-0.1,0.6-0.2,1.3-0.4,1.9c-0.3,0.9-0.6,1.7-1,2.5c-0.6,1.5-1.4,2.9-2.3,4.2
			c-0.6,0.9-1.3,1.7-2.1,2.4c-0.6,0.6-1.3,1-2.1,1.3c-0.1,0.2-0.1,0.3-0.2,0.5c-0.1,0.2-0.1,0.5-0.2,0.7c-0.1,0.3-0.1,0.6-0.2,1
			c0.4-0.6,0.9-1.1,1.4-1.5c0.5-0.5,1.2-0.7,1.9-0.8l0.4,0c0.7,0,1.3,0.1,1.9,0.5c0.5,0.4,1,0.9,1.3,1.4c0.4,0.6,0.6,1.3,0.8,2
			c0.2,0.7,0.3,1.4,0.3,2.1c0,0.5,0,1-0.1,1.5c-0.1,0.9-0.4,1.8-0.8,2.6c1.2-1.6,2.3-3,3.2-4.1C95.6,25.3,96.3,24.4,96.8,23.8z
			 M86.6,32.5c0.5-0.6,0.9-1.2,1.3-2c0.4-0.8,0.6-1.6,0.8-2.4c0.2-0.8,0.3-1.7,0.2-2.5c0-0.8-0.2-1.6-0.5-2.3
			c-0.5,0.2-1,0.6-1.3,1.1c-0.4,0.6-0.8,1.2-1.1,1.9c-0.3,0.7-0.6,1.4-0.9,2.1c-0.3,0.7-0.5,1.3-0.6,1.8c-0.1,0.4-0.2,0.9-0.1,1.3
			c0,0.4,0.2,0.9,0.5,1.1c0.2,0.2,0.5,0.2,0.8,0.2C86,32.8,86.3,32.7,86.6,32.5L86.6,32.5z M89.1,7.6c-0.5,0.4-0.9,0.9-1.2,1.5
			c-0.4,0.8-0.7,1.6-1,2.4c-0.3,0.9-0.5,1.7-0.8,2.6c-0.2,0.9-0.4,1.6-0.5,2.2c1.2-1.4,2.1-3.1,2.8-4.9C88.9,10.1,89.1,8.9,89.1,7.6
			L89.1,7.6z"/>
		<path id="Path_285" fill="#FFFFFF" d="M106.6,27.4c0.8,0,1.7-0.2,2.4-0.6c0.6-0.3,1.2-0.7,1.7-1.2c0.4-0.4,0.8-0.9,1.2-1.5
			c0.3-0.5,0.6-0.9,0.8-1.2c0.2-0.4,0.4-0.6,0.7-0.6c0.2,0,0.4,0.1,0.5,0.3c0.1,0.2,0.1,0.5,0,0.7c-0.3,0.8-0.7,1.6-1.1,2.3
			c-0.7,1.1-1.6,2-2.6,2.7c-0.6,0.4-1.2,0.8-1.8,1l-1.2,0.4c-0.3,0.1-0.6,0.2-0.8,0.5c-0.3,0.4-0.5,0.8-0.6,1.3
			c-0.4,1.3-1.1,2.4-2,3.4c-0.9,1-2.1,1.7-3.4,2.1c-0.3,0.1-0.6,0.2-0.8,0.2c-0.3,0.1-0.5,0.1-0.8,0.1c-0.8,0.1-1.6-0.2-2.3-0.6
			c-0.8-0.6-1.3-1.5-1.5-2.4c-0.5-1.8-0.5-3.7,0-5.6c0.3-1.1,0.6-2.1,0.9-3c0.3-0.9,0.7-1.7,1.1-2.6c0.4-0.7,1-1.4,1.7-2
			c0.7-0.6,1.5-1,2.4-1.3c0.2,0,0.4-0.1,0.5-0.1c0.1,0,0.2,0,0.4,0c0.2,0,0.5,0,0.7,0.1c0.1,0.1,0.3,0.2,0.5,0.2
			c0.2,0,0.4-0.1,0.5-0.2c0.3-0.3,0.7-0.5,1.2-0.5c0.5,0,0.9,0.2,1.2,0.6c0.9,0.7,1.4,1.9,1.2,3c0,0.4,0,0.9,0,1.3
			c0,0.5,0,0.9-0.1,1.3c0,0.1-0.1,0.4-0.2,0.9C106.5,26.7,106.5,27.1,106.6,27.4z M101.6,24.9c-0.6,0.8-1,1.7-1.3,2.6
			c-0.3,0.9-0.6,1.8-0.7,2.8c-0.1,0.7-0.1,1.4,0,2.2c0.1,0.6,0.3,0.9,0.7,0.9c0.3,0,0.6-0.1,0.8-0.2c0.2-0.2,0.4-0.4,0.6-0.6
			c0.2-0.2,0.3-0.5,0.5-0.9c0.2-0.3,0.4-0.7,0.6-1c0.3-0.3,0.4-0.7,0.4-1.2c0-0.5-0.3-0.9-0.7-1.2c-0.2-0.1-0.3-0.3-0.4-0.5
			c-0.1-0.2-0.1-0.4-0.2-0.6c-0.1-0.3-0.2-0.7-0.1-1.1C101.7,25.6,101.7,25.2,101.6,24.9L101.6,24.9z"/>
		<path id="Path_286" fill="#FFFFFF" d="M122.7,26.6c0.8,0,1.7-0.2,2.4-0.6c0.6-0.3,1.2-0.7,1.7-1.2c0.4-0.4,0.8-0.9,1.2-1.5
			c0.3-0.5,0.6-0.9,0.8-1.2c0.2-0.4,0.4-0.6,0.7-0.6c0.2,0,0.4,0.1,0.5,0.3c0.1,0.2,0.1,0.5,0,0.7c-0.3,0.8-0.7,1.6-1.1,2.3
			c-0.7,1.1-1.6,2-2.6,2.7c-0.6,0.4-1.2,0.8-1.8,1c-0.5,0.1-0.9,0.3-1.2,0.4c-0.3,0.1-0.6,0.2-0.8,0.5c-0.3,0.4-0.5,0.8-0.6,1.3
			c-0.4,1.3-1.1,2.4-2,3.4c-0.9,1-2.1,1.7-3.4,2.1c-0.3,0.1-0.6,0.2-0.8,0.2c-0.3,0.1-0.5,0.1-0.8,0.1c-0.8,0.1-1.6-0.2-2.3-0.6
			c-0.8-0.6-1.3-1.5-1.5-2.4c-0.5-1.8-0.5-3.7,0-5.6c0.3-1.1,0.6-2.1,0.9-3c0.3-0.9,0.7-1.7,1.1-2.6c0.4-0.7,1-1.4,1.7-2
			c0.7-0.6,1.5-1,2.4-1.3c0.2,0,0.4-0.1,0.5-0.1c0.1,0,0.2,0,0.4,0c0.2,0,0.5,0,0.7,0.1c0.1,0.1,0.3,0.2,0.5,0.2
			c0.2,0,0.4-0.1,0.5-0.2c0.3-0.3,0.7-0.5,1.2-0.5c0.5,0,0.9,0.2,1.2,0.6c0.9,0.7,1.4,1.9,1.2,3c0,0.4,0,0.9,0,1.3
			c0,0.5,0,0.9-0.1,1.3c0,0.1-0.1,0.4-0.2,0.9C122.6,25.9,122.6,26.3,122.7,26.6z M117.7,24c-0.6,0.8-1,1.7-1.3,2.7
			c-0.3,0.9-0.6,1.8-0.7,2.8c-0.1,0.7-0.1,1.4,0,2.2c0.1,0.6,0.3,0.9,0.7,0.9c0.3,0,0.6-0.1,0.8-0.3c0.2-0.2,0.4-0.4,0.6-0.6
			c0.2-0.2,0.3-0.5,0.5-0.9c0.2-0.3,0.4-0.7,0.6-1c0.3-0.3,0.4-0.7,0.4-1.2c0-0.5-0.3-0.9-0.7-1.2c-0.2-0.1-0.3-0.3-0.4-0.5
			c-0.1-0.2-0.1-0.4-0.2-0.6c-0.1-0.3-0.2-0.7-0.1-1.1C117.8,24.8,117.8,24.4,117.7,24L117.7,24z"/>
		<path id="Path_287" fill="#FFFFFF" d="M134.3,24.8c0.3-0.4,0.6-0.9,0.9-1.3c0.3-0.6,0.7-1.1,1.1-1.7s0.8-1.2,1.2-1.7
			c0.3-0.5,0.7-0.9,1.1-1.4c0.4-0.4,0.9-0.7,1.4-0.7c0.6,0,1.1,0.2,1.5,0.7c0.4,0.5,0.5,1.2,0.4,1.8c-0.2,0.9-0.5,1.7-0.9,2.5
			c-0.5,1-1,1.9-1.7,2.8c-0.6,0.9-1.3,1.8-2,2.7c-0.6,0.7-1.3,1.4-2,2.1c-0.1,0.1-0.2,0.2-0.2,0.3c0.4,0.4,1,0.7,1.6,0.8
			c0.8,0.3,1.6,0.5,2.4,0.9c0.7,0.3,1.4,0.6,2,1.1c0.5,0.4,0.6,1.1,0.2,1.7c-0.2,0.3-0.5,0.4-0.8,0.5c-0.7,0-1.5-0.2-2.2-0.4
			c-1-0.3-2.5-0.8-4.6-1.4c0,0.4,0,1-0.1,1.7c0,0.7,0,1.5-0.1,2.4c0,0.8,0,1.6,0,2.4c0,0.8,0.1,1.4,0.2,1.9c0.1,0.7-0.1,1.4-0.6,1.8
			c-0.5,0.5-1.2,0.8-1.9,0.8c-0.9,0-1.9-0.4-2.5-1c-0.8-0.7-1.2-2-1.2-3.9c0-2.6,0.1-6,0.4-10.4c0.4-5.1,1.1-10.2,2.3-15.1
			c0.2-0.8,0.4-1.7,0.6-2.7s0.6-2.1,0.9-3.1c0.3-1.1,0.7-2.1,1-3.1c0.3-0.9,0.7-1.7,1.1-2.6c0.4-0.6,0.8-1.3,1.3-1.8
			c0.4-0.5,1-0.7,1.6-0.8c0.1,0,0.1,0,0.1,0c0,0,0.1,0,0.2,0c0.7,0.2,1.2,0.6,1.5,1.2c0.4,0.7,0.6,1.4,0.6,2.2
			c-0.1,1.3-0.2,2.7-0.4,4.1c-0.2,1.4-0.4,2.9-0.8,4.3c-0.3,1.4-0.7,2.8-1.1,4.2c-0.4,1.3-0.9,2.6-1.5,3.9c-0.4,0.7-0.6,1.4-0.7,2.2
			C134.5,23.2,134.4,24,134.3,24.8z"/>
	</g>
</g>
</svg>
