<svg xmlns="http://www.w3.org/2000/svg" width="18.324" height="18.324" viewBox="0 0 18.324 18.324">
  <path id="Path_273" data-name="Path 273" d="M3091.241,480.39l4.244-4.244a.106.106,0,0,1,.122-.02l.333.166a.269.269,0,0,0,.311-.051l.408-.408a.269.269,0,0,0,0-.381.106.106,0,0,1,0-.15l.366-.366a6.509,6.509,0,1,1,2.077,2.077l-.366.366a.106.106,0,0,1-.15,0h0a.269.269,0,0,0-.381,0l-.408.408a.269.269,0,0,0-.051.31l.166.333a.106.106,0,0,1-.02.122l-4.244,4.244a1.7,1.7,0,1,1-2.407-2.408Zm14.98-5.234a5.189,5.189,0,1,0-3.669,1.52A5.155,5.155,0,0,0,3106.221,475.156Z" transform="translate(-3090.743 -464.972)" fill="#0237a4"/>
</svg>
