<?xml version="1.0" encoding="utf-8"?>
<!-- Generator: Adobe Illustrator 25.4.1, SVG Export Plug-In . SVG Version: 6.00 Build 0)  -->
<svg version="1.1" id="Layer_1" xmlns="http://www.w3.org/2000/svg" xmlns:xlink="http://www.w3.org/1999/xlink" x="0px" y="0px"
	 width="48.7px" height="48.7px" viewBox="0 0 48.7 48.7" enable-background="new 0 0 48.7 48.7" xml:space="preserve">
<g id="social-twitter" transform="translate(-1580 -11972)">
	<path id="Path_200" fill="#FFFFFF" d="M1615,11990c-0.8,0.3-1.6,0.6-2.5,0.7c0.9-0.5,1.6-1.4,1.9-2.4c-0.8,0.5-1.8,0.9-2.7,1
		c-1.6-1.7-4.3-1.8-6.1-0.2c-0.9,0.8-1.4,1.9-1.4,3.1c0,0.3,0,0.7,0.1,1c-3.5-0.2-6.7-1.8-8.9-4.5c-1.1,2-0.6,4.5,1.3,5.7
		c-0.7,0-1.4-0.2-1.9-0.5v0.1c0,2,1.4,3.8,3.4,4.2c-0.6,0.2-1.3,0.2-1.9,0.1c0.6,1.8,2.2,3,4,3c-1.8,1.4-4.1,2-6.4,1.8
		c5.7,3.6,13.2,2,16.9-3.7c1.3-2,1.9-4.3,1.9-6.6c0-0.2,0-0.4,0-0.6C1613.6,11991.6,1614.4,11990.9,1615,11990z"/>
	<path id="Path_197" fill="#BF7B30" d="M1604.4,12020.7c-13.5,0-24.4-10.9-24.4-24.4c0-13.5,10.9-24.4,24.4-24.4
		c13.5,0,24.4,10.9,24.4,24.4C1628.7,12009.8,1617.8,12020.7,1604.4,12020.7z M1604.4,11974c-12.3,0-22.4,10-22.4,22.4
		c0,12.3,10,22.4,22.4,22.4c12.3,0,22.4-10,22.4-22.4C1626.7,11984,1616.7,11974,1604.4,11974z"/>
</g>
</svg>
